G04 Layer_Physical_Order=2*
G04 Layer_Color=16711680*
%FSLAX44Y44*%
%MOMM*%
G71*
G01*
G75*
%ADD10C,0.2540*%
%ADD11R,1.2000X1.2000*%
%ADD12C,1.2000*%
%ADD13C,1.5240*%
%ADD14R,1.5240X1.5240*%
%ADD15O,2.0000X1.2000*%
%ADD16R,2.0000X1.2000*%
D10*
X137160Y223520D02*
X138430Y222250D01*
X113270Y200660D02*
X113610Y201000D01*
X110490Y107950D02*
Y114300D01*
X71120Y102870D02*
X85090Y88900D01*
X71120Y102870D02*
Y182880D01*
X86360Y198120D01*
X110490Y88900D02*
Y98135D01*
X121920Y109565D01*
Y125730D01*
X110490Y137160D02*
X121920Y125730D01*
X110490Y137160D02*
Y196850D01*
X111760Y198120D01*
X132095Y260020D02*
X195580D01*
X100330Y228255D02*
X132095Y260020D01*
X100330Y212090D02*
Y228255D01*
X86360Y198120D02*
X100330Y212090D01*
X176530Y105410D02*
X190900D01*
X160020Y88900D02*
X176530Y105410D01*
X135890Y88900D02*
X147320D01*
X160020D01*
X195580Y125730D02*
Y160020D01*
Y125730D02*
X215900Y105410D01*
X145415Y90805D02*
X147320Y88900D01*
X137160Y198120D02*
X157480Y177800D01*
Y110490D02*
Y177800D01*
X135890Y88900D02*
X157480Y110490D01*
D11*
X195580Y260020D02*
D03*
D12*
Y160020D02*
D03*
D13*
X86360Y198120D02*
D03*
X111760D02*
D03*
X137160D02*
D03*
X111760Y223520D02*
D03*
X137160D02*
D03*
X85090Y88900D02*
D03*
X110490D02*
D03*
X135890D02*
D03*
X110490Y114300D02*
D03*
X135890D02*
D03*
D14*
X86360Y223520D02*
D03*
X85090Y114300D02*
D03*
D15*
X190900Y105410D02*
D03*
D16*
X215900D02*
D03*
M02*
